#!OML:ASF I:\Actors\actors\Patient Classification 2\Patient 1\Session 1\actor1.ASF
:FULLY-SPECIFIED
:DEGREES
94
root -0.512083 18.6822 5.73851 2.59885 -3.34045 -1.35207
lowerback -0.144604 1.7855 0.0535954
upperback -2.25506 2.37691 -0.315673
thorax -2.21424 1.18307 -0.395741
lowerneck -11.5667 -3.01246 -1.96049
upperneck 22.9606 -5.01646 4.96847
head 9.30246 -1.98563 1.4611
rclavicle -9.06955e-015 -6.36111e-015
rhumerus -46.7229 -1.8009 -89.1264
rradius 40.8016
rwrist 22.0611
rhand -8.42381 -29.8707
rfingers 7.12502
rthumb 17.501 -59.1029
lclavicle -9.06955e-015 -6.36111e-015
lhumerus -40.835 0.176345 90.8331
lradius 36.4791
lwrist -11.3116
lhand -7.66269 -23.8048
lfingers 7.12502
lthumb 18.2334 5.36066
rfemur 0 0 0
rtibia 0
rfoot 0 0
rtoes 0
lfemur -4.08302 -6.02449 -13.8569
ltibia 21.2141
lfoot -25.8558 18.1746
ltoes -53.7684
95
root -0.512219 18.6817 5.73989 2.62003 -3.35658 -1.32957
lowerback -0.149677 1.79725 0.035946
upperback -2.26476 2.39209 -0.330866
thorax -2.22135 1.19081 -0.401739
lowerneck -11.5993 -3.02738 -1.93746
upperneck 22.9732 -5.03552 4.93802
head 9.31235 -1.99502 1.44411
rclavicle -1.97791e-014 8.74653e-015
rhumerus -46.7293 -1.84821 -89.1193
rradius 40.8106
rwrist 22.055
rhand -8.39635 -29.8059
rfingers 7.12502
rthumb 17.5274 -59.0357
lclavicle -1.97791e-014 8.74653e-015
lhumerus -40.8416 0.160581 90.8367
lradius 36.4699
lwrist -11.3115
lhand -7.77348 -23.786
lfingers 7.12502
lthumb 18.1268 5.38939
rfemur 0 0 0
rtibia 0
rfoot 0 0
rtoes 0
lfemur -4.09491 -6.0272 -13.884
ltibia 21.2068
lfoot -25.8499 18.1883
ltoes -53.7909
96
root -0.512439 18.6816 5.74072 2.62776 -3.34811 -1.30915
lowerback -0.158527 1.79294 0.00626776
upperback -2.26824 2.38588 -0.337314
thorax -2.22093 1.18821 -0.391433
lowerneck -11.5777 -3.03132 -1.93116
upperneck 22.9459 -5.03915 4.93039
head 9.29853 -1.99786 1.44018
rclavicle 1.79155e-014 3.18055e-015
rhumerus -46.7413 -1.84163 -89.1311
rradius 40.8228
rwrist 22.0134
rhand -8.40199 -29.794
rfingers 7.12502
rthumb 17.522 -59.0243
lclavicle 1.79155e-014 3.18055e-015
lhumerus -40.8598 0.160871 90.8318
lradius 36.4635
lwrist -11.3499
lhand -7.86542 -23.835
lfingers 7.12502
lthumb 18.0383 5.34854
rfemur 0 0 0
rtibia 0
rfoot 0 0
rtoes 0
lfemur -4.09472 -6.00062 -13.9018
ltibia 21.192
lfoot -25.8026 18.15
ltoes -53.7703
97
root -0.512136 18.6819 5.74151 2.62936 -3.33791 -1.2999
lowerback -0.16246 1.79218 -0.00273418
upperback -2.26749 2.38474 -0.339282
thorax -2.21824 1.1878 -0.388249
lowerneck -11.5537 -3.03484 -1.95296
upperneck 22.9137 -5.03744 4.92953
head 9.28317 -1.99999 1.44396
rclavicle -3.60546e-014 3.97569e-015
rhumerus -46.7582 -1.84721 -89.1203
rradius 40.8454
rwrist 22.0203
rhand -8.41233 -29.7884
rfingers 7.12502
rthumb 17.5121 -59.0197
lclavicle -3.60546e-014 3.97569e-015
lhumerus -40.8916 0.137425 90.8464
lradius 36.4892
lwrist -11.3392
lhand -7.87977 -23.8686
lfingers 7.12502
lthumb 18.0245 5.3162
rfemur 0 0 0
rtibia 0
rfoot 0 0
rtoes 0
lfemur -4.08591 -5.98386 -13.9109
ltibia 21.1779
lfoot -25.8012 18.104
ltoes -53.7177
98
root -0.511678 18.6824 5.74231 2.62003 -3.34365 -1.29194
lowerback -0.135508 1.79043 0.010297
upperback -2.26602 2.38232 -0.35048
thorax -2.23089 1.18619 -0.407854
lowerneck -11.5594 -3.02514 -1.93609
upperneck 22.894 -5.01157 4.86958
head 9.27415 -1.99312 1.4234
rclavicle 1.15419e-014 -3.18055e-015
rhumerus -46.7479 -1.84637 -89.1116
rradius 40.8426
rwrist 22.1006
rhand -8.44976 -29.7566
rfingers 7.12502
rthumb 17.476 -58.991
lclavicle 1.15419e-014 -3.18055e-015
lhumerus -40.927 0.100031 90.8538
lradius 36.5194
lwrist -11.2613
lhand -7.91281 -23.8651
lfingers 7.12502
lthumb 17.9927 5.32259
rfemur 0 0 0
rtibia 0
rfoot 0 0
rtoes 0
lfemur -4.071 -5.97751 -13.9227
ltibia 21.1726
lfoot -25.8342 18.074
ltoes -53.6174
99
root -0.511218 18.6818 5.74293 2.59819 -3.34533 -1.28081
lowerback -0.0987137 1.77275 0.00785858
upperback -2.2635 2.35861 -0.352867
thorax -2.24911 1.17432 -0.409748
lowerneck -11.551 -2.99839 -1.89572
upperneck 22.8781 -4.96287 4.79185
head 9.26186 -1.97568 1.39565
rclavicle -9.18137e-015 1.98785e-015
rhumerus -46.7267 -1.75607 -89.1345
rradius 40.823
rwrist 22.1281
rhand -8.4973 -29.7348
rfingers 7.12502
rthumb 17.4303 -58.9733
lclavicle -9.18137e-015 1.98785e-015
lhumerus -40.9594 0.119036 90.8386
lradius 36.5331
lwrist -11.2176
lhand -7.89795 -23.9033
lfingers 7.12502
lthumb 18.007 5.28307
rfemur 0 0 0
rtibia 0
rfoot 0 0
rtoes 0
lfemur -4.04992 -5.97705 -13.9403
ltibia 21.1778
lfoot -25.8617 18.0821
ltoes -53.6211
100
root -0.510721 18.6813 5.74438 2.59393 -3.33897 -1.2684
lowerback -0.111823 1.7549 -0.0140134
upperback -2.25524 2.33473 -0.344107
thorax -2.23463 1.16294 -0.38751
lowerneck -11.524 -2.9723 -1.89802
upperneck 22.8499 -4.92159 4.78081
head 9.24502 -1.95873 1.39733
rclavicle 1.3828e-014 -9.14409e-015
rhumerus -46.7058 -1.67111 -89.1499
rradius 40.8077
rwrist 22.0974
rhand -8.50224 -29.6819
rfingers 7.12502
rthumb 17.4255 -58.9208
lclavicle 1.3828e-014 -9.14409e-015
lhumerus -40.9775 0.165263 90.8302
lradius 36.548
lwrist -11.211
lhand -7.79604 -23.9569
lfingers 7.12502
lthumb 18.1051 5.22044
rfemur 0 0 0
rtibia 0
rfoot 0 0
rtoes 0
lfemur -4.04589 -5.95791 -13.9562
ltibia 21.1903
lfoot -25.8376 18.1118
ltoes -53.7309
101
root -0.510809 18.6814 5.74573 2.60211 -3.34104 -1.26546
lowerback -0.146406 1.74326 -0.0352949
upperback -2.23211 2.31937 -0.326866
thorax -2.19305 1.15595 -0.35603
lowerneck -11.5258 -2.94201 -1.91412
upperneck 22.793 -4.86745 4.76075
head 9.22322 -1.93784 1.39923
rclavicle 1.22625e-014 -5.96354e-015
rhumerus -46.6552 -1.65293 -89.1338
rradius 40.8002
rwrist 22.0893
rhand -8.48115 -29.6588
rfingers 7.12502
rthumb 17.4458 -58.8959
lclavicle 1.22625e-014 -5.96354e-015
lhumerus -40.9628 0.206552 90.8487
lradius 36.5611
lwrist -11.198
lhand -7.75976 -23.9491
lfingers 7.12502
lthumb 18.14 5.22504
rfemur 0 0 0
rtibia 0
rfoot 0 0
rtoes 0
lfemur -4.05707 -5.94298 -13.9561
ltibia 21.2083
lfoot -25.8161 18.12
ltoes -53.7303
102
root -0.51167 18.6812 5.74625 2.61049 -3.35297 -1.28687
lowerback -0.166751 1.73257 -0.0359583
upperback -2.20042 2.30567 -0.299596
thorax -2.15025 1.14949 -0.32615
lowerneck -11.5775 -2.91521 -1.94934
upperneck 22.7465 -4.81739 4.7528
head 9.2154 -1.91818 1.4074
rclavicle 4.5472e-015 3.37934e-015
rhumerus -46.5976 -1.65345 -89.1029
rradius 40.8232
rwrist 22.0757
rhand -8.39338 -29.7074
rfingers 7.12502
rthumb 17.5303 -58.937
lclavicle 4.5472e-015 3.37934e-015
lhumerus -40.94 0.22618 90.8827
lradius 36.5957
lwrist -11.1638
lhand -7.77935 -23.9492
lfingers 7.12502
lthumb 18.1211 5.22666
rfemur 0 0 0
rtibia 0
rfoot 0 0
rtoes 0
lfemur -4.06942 -5.98454 -13.9318
ltibia 21.2259
lfoot -25.8672 18.14
ltoes -53.6525
103
root -0.512667 18.6811 5.74662 2.62481 -3.36176 -1.31277
lowerback -0.182112 1.72942 -0.0189729
upperback -2.17579 2.30196 -0.285217
thorax -2.11624 1.14755 -0.319812
lowerneck -11.6235 -2.90483 -1.95962
upperneck 22.7063 -4.80003 4.76075
head 9.20984 -1.90996 1.41312
rclavicle 3.54209e-014 -6.75868e-015
rhumerus -46.569 -1.68565 -89.0788
rradius 40.857
rwrist 22.0258
rhand -8.41733 -29.73
rfingers 7.12502
rthumb 17.5073 -58.9616
lclavicle 3.54209e-014 -6.75868e-015
lhumerus -40.9569 0.157283 90.9239
lradius 36.6923
lwrist -11.0726
lhand -7.76333 -23.9233
lfingers 7.12502
lthumb 18.1365 5.25113
rfemur 0 0 0
rtibia 0
rfoot 0 0
rtoes 0
lfemur -4.08346 -5.9919 -13.9008
ltibia 21.2336
lfoot -25.8735 18.1498
ltoes -53.6272
104
root -0.512629 18.6816 5.74722 2.63484 -3.35669 -1.31741
lowerback -0.165748 1.72757 0.00216773
upperback -2.18056 2.29953 -0.295134
thorax -2.12911 1.14581 -0.342373
lowerneck -11.5967 -2.90411 -1.91265
upperneck 22.6364 -4.80069 4.74069
head 9.1789 -1.91 1.39834
rclavicle -1.89156e-014 -1.21259e-014
rhumerus -46.6283 -1.75904 -89.0673
rradius 40.8948
rwrist 21.8731
rhand -8.70779 -29.4812
rfingers 7.12502
rthumb 17.2277 -58.7376
lclavicle -1.89156e-014 -1.21259e-014
lhumerus -41.0448 0.0542027 90.9529
lradius 36.8035
lwrist -10.97
lhand -7.73498 -23.8198
lfingers 7.12502
lthumb 18.1638 5.35213
rfemur 0 0 0
rtibia 0
rfoot 0 0
rtoes 0
lfemur -4.09579 -5.91492 -13.889
ltibia 21.2328
lfoot -25.8181 18.1051
ltoes -53.6766
105
root -0.511517 18.6825 5.74888 2.64228 -3.34356 -1.28589
lowerback -0.150081 1.71574 0.00753804
upperback -2.19146 2.28339 -0.316096
thorax -2.14813 1.13739 -0.367309
lowerneck -11.5634 -2.90945 -1.85444
upperneck 22.5517 -4.80214 4.68137
head 9.14027 -1.91404 1.3682
rclavicle 1.57288e-014 -1.21259e-014
rhumerus -46.7452 -1.7272 -89.1438
rradius 40.8408
rwrist 21.038
rhand -10.306 -28.5961
rfingers 7.12502
rthumb 15.689 -57.9801
lclavicle 1.57288e-014 -1.21259e-014
lhumerus -41.1427 -0.0176933 90.975
lradius 36.876
lwrist -10.8828
lhand -7.71356 -23.776
lfingers 7.12502
lthumb 18.1844 5.39398
rfemur 0 0 0
rtibia 0
rfoot 0 0
rtoes 0
lfemur -4.1044 -5.86763 -13.9222
ltibia 21.2345
lfoot -25.8368 18.0495
ltoes -53.7367
106
root -0.51087 18.6823 5.75071 2.65313 -3.33304 -1.2437
lowerback -0.162169 1.69247 -0.000813758
upperback -2.17278 2.25206 -0.32894
thorax -2.12211 1.12182 -0.374468
lowerneck -11.6048 -2.91384 -1.847
upperneck 22.4517 -4.79713 4.65042
head 9.1122 -1.91537 1.35604
rclavicle 3.4601e-015 0
rhumerus -46.8438 -1.48681 -89.3473
rradius 40.7462
rwrist 19.659
rhand -13.0176 -27.3908
rfingers 7.12502
rthumb 13.0762 -56.9609
lclavicle 3.4601e-015 0
lhumerus -41.1396 -0.00875956 90.9765
lradius 36.8709
lwrist -10.847
lhand -7.66831 -23.8168
lfingers 7.12502
lthumb 18.228 5.3491
rfemur 0 0 0
rtibia 0
rfoot 0 0
rtoes 0
lfemur -4.10979 -5.91203 -13.9742
ltibia 21.2357
lfoot -25.8678 18.059
ltoes -53.7195
107
root -0.511078 18.6814 5.75217 2.65922 -3.33168 -1.23284
lowerback -0.157824 1.67057 0.0157407
upperback -2.13832 2.22299 -0.333016
thorax -2.0885 1.10704 -0.386833
lowerneck -11.6372 -2.9124 -1.90098
upperneck 22.2315 -4.78999 4.72625
head 9.04517 -1.91166 1.39066
rclavicle 5.70264e-015 0
rhumerus -46.9691 -1.20154 -89.5426
rradius 40.8756
rwrist 18.9029
rhand -14.9149 -26.6754
rfingers 7.12502
rthumb 11.2468 -56.3539
lclavicle 5.70264e-015 0
lhumerus -41.0515 0.0355346 90.9637
lradius 36.773
lwrist -10.917
lhand -7.67628 -23.8412
lfingers 7.12502
lthumb 18.2203 5.32545
rfemur 0 0 0
rtibia 0
rfoot 0 0
rtoes 0
lfemur -4.10851 -5.90675 -13.989
ltibia 21.2336
lfoot -25.8034 18.1014
ltoes -53.7343
108
root -0.512044 18.6812 5.7538 2.66178 -3.32449 -1.24481
lowerback -0.134056 1.64615 0.0605915
upperback -2.10763 2.19062 -0.350098
thorax -2.06815 1.08995 -0.428975
lowerneck -11.5963 -2.90438 -1.83967
upperneck 21.8492 -4.7756 4.74233
head 8.90428 -1.90518 1.38676
rclavicle -4.1956e-014 1.21259e-014
rhumerus -47.1686 -0.966588 -89.7206
rradius 41.2064
rwrist 18.7703
rhand -16.0821 -26.6925
rfingers 7.12502
rthumb 10.1209 -56.4291
lclavicle -4.1956e-014 1.21259e-014
lhumerus -41.0084 -0.152698 91.0035
lradius 36.69
lwrist -10.9323
lhand -7.79454 -23.8015
lfingers 7.12502
lthumb 18.1065 5.37573
rfemur 0 0 0
rtibia 0
rfoot 0 0
rtoes 0
lfemur -4.10988 -5.86809 -13.9714
ltibia 21.242
lfoot -25.7506 18.1164
ltoes -53.8153
109
root -0.513362 18.6817 5.75457 2.66382 -3.30832 -1.25839
lowerback -0.104812 1.61566 0.103254
upperback -2.0824 2.14996 -0.376683
thorax -2.05636 1.06866 -0.47977
lowerneck -11.5395 -2.88227 -1.63705
upperneck 21.4224 -4.73918 4.63092
head 8.73853 -1.89128 1.31873
rclavicle 2.23819e-014 6.36111e-015
rhumerus -47.4247 -0.663932 -89.9669
rradius 41.6451
rwrist 18.5796
rhand -16.9748 -27.4055
rfingers 7.12502
rthumb 9.25964 -57.1821
lclavicle 2.23819e-014 6.36111e-015
lhumerus -41.0395 -0.576656 91.0979
lradius 36.6843
lwrist -10.8251
lhand -7.84687 -23.6809
lfingers 7.12502
lthumb 18.0562 5.501
rfemur 0 0 0
rtibia 0
rfoot 0 0
rtoes 0
lfemur -4.12222 -5.87963 -13.9492
ltibia 21.2626
lfoot -25.7734 18.1101
ltoes -53.8384
